<svg viewBox="0 0 200 200" xmlns="http://www.w3.org/2000/svg">
  <!-- BundleBoss mark — crowned open box, isometric. Constructed geometry, v1.0 (2026-06-12). -->
  <!-- Palette: coral #ff5a36/#e8401f/#ff8a5e/#ffa67e · magenta #c2188f/#ef4bbc · plum #6b0f4e/#8d1d68/#a02376/#e040ae -->

  <!-- base: open-box V band -->
  <polygon points="36,104 100,136 100,148 36,116" fill="#e040ae"/>
  <polygon points="164,104 100,136 100,148 164,116" fill="#a02376"/>
  <polygon points="30,110 100,145 100,167 30,132" fill="#c2188f"/>
  <polygon points="170,110 100,145 100,167 170,132" fill="#6b0f4e"/>
  <polygon points="30,110 36,104 100,136 100,145" fill="#ef4bbc"/>
  <polygon points="170,110 164,104 100,136 100,145" fill="#8d1d68"/>

  <!-- crown rim -->
  <polygon points="30,67 100,102 100,130 30,95" fill="#ff5a36"/>
  <polygon points="170,67 100,102 100,130 170,95" fill="#e8401f"/>
  <polygon points="30,67 44,60 100,88 100,102" fill="#ff8a5e"/>
  <polygon points="170,67 156,60 100,88 100,102" fill="#ff6a45"/>
  <polygon points="44,60 100,32 100,46 58,67" fill="#ff7a50"/>
  <polygon points="156,60 100,32 100,46 142,67" fill="#f05530"/>

  <!-- crown prongs -->
  <polygon points="30,48 44,41 44,60 30,67" fill="#ff8a5e"/>
  <polygon points="30,48 16,41 16,60 30,67" fill="#ff5a36"/>
  <polygon points="30,48 16,41 30,34 44,41" fill="#ffa67e"/>
  <polygon points="170,48 156,41 156,60 170,67" fill="#ff6a45"/>
  <polygon points="170,48 184,41 184,60 170,67" fill="#e8401f"/>
  <polygon points="170,48 184,41 170,34 156,41" fill="#ff9a6e"/>
  <polygon points="100,14 117,22 117,40 100,48 83,40 83,22" fill="#ff6a45"/>
  <polygon points="100,14 117,22 100,30 83,22" fill="#ffa67e"/>
  <polygon points="100,30 117,22 117,40 100,48" fill="#e8401f"/>
  <polygon points="100,30 83,22 83,40 100,48" fill="#ff5a36"/>
</svg>
